<svg xmlns="http://www.w3.org/2000/svg" width="16px" height="16px" viewBox="0 0 2048 2048">
    <circle fill-opacity="0.6" r="896" cx="1024" cy="1024" fill="#4a94e4"></circle>
    <path fill-opacity="0.7" transform="translate(676.3199999999999, 1289.76) scale(0.63, -0.63)" fill="#231f20" d="M375 141v-567h-185v1546h185v-143q46 83 122.5 126.5t176.5 43.5q203 0 318.5 -157t115.5 -435q0 -273 -116 -428.5t-318 -155.5q-102 0 -178.5 43.5t-120.5 126.5zM915 559q0 214 -67.5 323t-200.5 109q-134 0 -203 -109.5t-69 -322.5q0 -212 69 -322t203 -110 q133 0 200.5 109t67.5 323z"></path>
</svg>